<svg width="215" height="62" viewBox="0 0 215 62" fill="none" xmlns="http://www.w3.org/2000/svg">
<path d="M213.192 54.824C213.192 58.1245 210.463 60.7979 207.087 60.7979H7.30374C3.92966 60.7979 1.19092 58.1245 1.19092 54.824V7.18381C1.19092 3.88489 3.92966 1.20208 7.30374 1.20208H207.086C210.463 1.20208 213.191 3.88489 213.191 7.18381L213.192 54.824Z" fill="white"/>
<path d="M206.443 1.27413C210.119 1.27413 213.111 4.19079 213.111 7.77516V54.2249C213.111 57.8092 210.119 60.7259 206.443 60.7259H7.94012C4.26385 60.7259 1.2724 57.8092 1.2724 54.2249V7.77516C1.2724 4.19079 4.26385 1.27413 7.94012 1.27413H206.443ZM206.443 0.0335422H7.94012C3.57504 0.0335422 0 3.51921 0 7.77516V54.2249C0 58.4808 3.57504 61.9665 7.94012 61.9665H206.443C210.808 61.9665 214.383 58.4808 214.383 54.2249V7.77516C214.383 3.51921 210.808 0.0335422 206.443 0.0335422Z" fill="#A6A6A6"/>
<path d="M47.8441 30.6656C47.7981 25.6753 52.0349 23.2475 52.2286 23.1345C49.8291 19.7235 46.11 19.2575 44.803 19.2203C41.6794 18.8998 38.6494 21.0427 37.0582 21.0427C35.4353 21.0427 32.985 19.2513 30.3441 19.304C26.9457 19.355 23.7665 21.2734 22.0228 24.2524C18.4244 30.3265 21.1081 39.2526 24.5557 44.1623C26.2803 46.5668 28.2955 49.2516 30.9332 49.1572C33.5138 49.0534 34.4777 47.5531 37.5918 47.5531C40.6774 47.5531 41.5825 49.1572 44.2726 49.0968C47.0422 49.0534 48.7858 46.6814 50.4501 44.2552C52.443 41.4992 53.2434 38.785 53.2752 38.6456C53.21 38.6239 47.8965 36.6467 47.8441 30.6656Z" fill="black"/>
<path d="M42.7624 15.9905C44.1504 14.2982 45.1 11.9959 44.8364 9.65945C42.8275 9.74615 40.3153 11.0142 38.8686 12.6694C37.5886 14.1279 36.4453 16.5185 36.7406 18.7667C38.9972 18.9308 41.3141 17.6565 42.7624 15.9905Z" fill="black"/>
<path d="M85.1896 48.8119H81.5832L79.6077 42.7595H72.7411L70.8593 48.8119H67.3481L74.1512 28.2068H78.3531L85.1896 48.8119ZM79.0122 40.2202L77.2257 34.8398C77.0367 34.2902 76.6825 32.9958 76.1601 30.9582H76.0966C75.8885 31.8345 75.5535 33.1289 75.0929 34.8398L73.3382 40.2202H79.0122Z" fill="black"/>
<path d="M102.685 41.2004C102.685 43.7272 101.985 45.7246 100.584 47.1908C99.3297 48.4961 97.7718 49.1479 95.9123 49.1479C93.905 49.1479 92.4631 48.445 91.5849 47.0391H91.5214V54.8659H88.1357V38.8454C88.1357 37.2568 88.0928 35.6264 88.0103 33.9542H90.9878L91.1768 36.3092H91.2403C92.3694 34.5348 94.0829 33.6492 96.3823 33.6492C98.18 33.6492 99.6806 34.3413 100.881 35.727C102.085 37.1143 102.685 38.9383 102.685 41.2004ZM99.236 41.3211C99.236 39.875 98.9025 38.6828 98.2324 37.7445C97.5003 36.766 96.5173 36.2767 95.285 36.2767C94.4497 36.2767 93.6906 36.5492 93.0125 37.0865C92.3329 37.6284 91.8882 38.336 91.6802 39.2123C91.5754 39.6211 91.523 39.9555 91.523 40.2187V42.696C91.523 43.7768 91.8628 44.6887 92.5425 45.4335C93.2221 46.1782 94.1051 46.5498 95.1913 46.5498C96.4665 46.5498 97.459 46.0698 98.1688 45.113C98.8803 44.1546 99.236 42.8911 99.236 41.3211Z" fill="black"/>
<path d="M120.212 41.2004C120.212 43.7272 119.512 45.7246 118.109 47.1908C116.856 48.4961 115.299 49.1479 113.439 49.1479C111.432 49.1479 109.99 48.445 109.113 47.0391H109.05V54.8659H105.664V38.8454C105.664 37.2568 105.621 35.6264 105.539 33.9542H108.516L108.705 36.3092H108.769C109.896 34.5348 111.61 33.6492 113.911 33.6492C115.707 33.6492 117.207 34.3413 118.411 35.727C119.61 37.1143 120.212 38.9383 120.212 41.2004ZM116.763 41.3211C116.763 39.875 116.428 38.6828 115.758 37.7445C115.025 36.766 114.046 36.2767 112.812 36.2767C111.975 36.2767 111.217 36.5492 110.538 37.0865C109.858 37.6284 109.415 38.336 109.207 39.2123C109.104 39.6211 109.05 39.9555 109.05 40.2187V42.696C109.05 43.7768 109.39 44.6887 110.066 45.4335C110.746 46.1767 111.629 46.5498 112.718 46.5498C113.993 46.5498 114.986 46.0698 115.696 45.113C116.407 44.1546 116.763 42.8911 116.763 41.3211Z" fill="black"/>
<path d="M139.808 43.0336C139.808 44.7863 139.184 46.2123 137.931 47.3131C136.554 48.5162 134.637 49.1169 132.174 49.1169C129.9 49.1169 128.077 48.6896 126.697 47.8334L127.482 45.082C128.968 45.9584 130.599 46.3981 132.376 46.3981C133.651 46.3981 134.644 46.1163 135.357 45.5558C136.067 44.9953 136.421 44.2428 136.421 43.3045C136.421 42.4684 136.129 41.7639 135.543 41.1926C134.96 40.6213 133.986 40.0902 132.627 39.5994C128.927 38.2539 127.078 36.2829 127.078 33.691C127.078 31.9971 127.726 30.6083 129.024 29.5275C130.316 28.4453 132.041 27.9049 134.198 27.9049C136.121 27.9049 137.718 28.2316 138.993 28.8834L138.147 31.5744C136.956 30.9427 135.609 30.6269 134.102 30.6269C132.911 30.6269 131.981 30.9133 131.314 31.4831C130.75 31.9925 130.467 32.6134 130.467 33.3488C130.467 34.1632 130.79 34.8367 131.438 35.3663C132.001 35.8555 133.026 36.3851 134.512 36.9564C136.33 37.6702 137.666 38.5047 138.525 39.4616C139.381 40.4154 139.808 41.6091 139.808 43.0336Z" fill="black"/>
<path d="M151.002 36.4315H147.27V43.6451C147.27 45.4799 147.928 46.3965 149.246 46.3965C149.851 46.3965 150.353 46.3454 150.75 46.2432L150.843 48.75C150.176 48.9931 149.298 49.1154 148.21 49.1154C146.873 49.1154 145.828 48.7175 145.074 47.9232C144.323 47.1273 143.945 45.7927 143.945 43.9176V36.4284H141.722V33.9511H143.945V31.2307L147.27 30.2521V33.9511H151.002V36.4315Z" fill="black"/>
<path d="M167.84 41.2607C167.84 43.5445 167.17 45.4195 165.833 46.8858C164.43 48.3954 162.569 49.1479 160.249 49.1479C158.013 49.1479 156.233 48.4248 154.905 46.9787C153.578 45.5326 152.914 43.7071 152.914 41.5069C152.914 39.2046 153.597 37.3187 154.967 35.8524C156.335 34.3846 158.18 33.6507 160.5 33.6507C162.736 33.6507 164.535 34.3738 165.893 35.8215C167.192 37.2258 167.84 39.0389 167.84 41.2607ZM164.327 41.3676C164.327 39.9973 164.027 38.8221 163.419 37.842C162.709 36.656 161.694 36.0646 160.379 36.0646C159.018 36.0646 157.985 36.6576 157.275 37.842C156.667 38.8237 156.366 40.0174 156.366 41.4295C156.366 42.7998 156.667 43.9749 157.275 44.9535C158.007 46.1395 159.03 46.731 160.349 46.731C161.642 46.731 162.657 46.1271 163.389 44.9225C164.013 43.9239 164.327 42.7363 164.327 41.3676Z" fill="black"/>
<path d="M178.845 36.8573C178.51 36.7969 178.152 36.766 177.778 36.766C176.587 36.766 175.666 37.2041 175.018 38.082C174.454 38.8562 174.171 39.8347 174.171 41.0161V48.8119H170.787L170.819 38.6332C170.819 36.9208 170.776 35.3616 170.692 33.9558H173.641L173.765 36.7985H173.858C174.216 35.8215 174.779 35.0349 175.551 34.445C176.306 33.914 177.12 33.6492 177.998 33.6492C178.311 33.6492 178.594 33.6709 178.845 33.7096V36.8573Z" fill="black"/>
<path d="M193.987 40.6801C193.987 41.2716 193.947 41.7701 193.863 42.1773H183.706C183.746 43.6451 184.237 44.7677 185.18 45.5418C186.036 46.2339 187.143 46.5808 188.502 46.5808C190.006 46.5808 191.378 46.347 192.612 45.8778L193.142 48.1693C191.7 48.7825 189.998 49.0875 188.033 49.0875C185.671 49.0875 183.816 48.4093 182.466 47.0546C181.119 45.6998 180.444 43.8805 180.444 41.5983C180.444 39.3578 181.072 37.4921 182.328 36.0042C183.643 34.4156 185.42 33.6213 187.656 33.6213C189.852 33.6213 191.514 34.4156 192.644 36.0042C193.538 37.2661 193.987 38.8268 193.987 40.6801ZM190.759 39.8239C190.781 38.8453 190.56 38 190.101 37.2862C189.515 36.368 188.615 35.9097 187.403 35.9097C186.296 35.9097 185.396 36.3572 184.708 37.2552C184.144 37.969 183.809 38.8252 183.706 39.8223H190.759V39.8239Z" fill="black"/>
<path d="M77.8924 15.5307C77.8924 17.3531 77.3319 18.7249 76.2123 19.6462C75.1753 20.4962 73.7017 20.922 71.7928 20.922C70.8464 20.922 70.0365 20.8817 69.3584 20.8012V10.8439C70.2429 10.7046 71.1957 10.6334 72.2248 10.6334C74.0431 10.6334 75.4135 11.0189 76.3378 11.79C77.3732 12.6617 77.8924 13.9081 77.8924 15.5307ZM76.1377 15.5756C76.1377 14.3942 75.8169 13.4885 75.1753 12.8568C74.5338 12.2266 73.5968 11.9107 72.3629 11.9107C71.8389 11.9107 71.3927 11.9448 71.0226 12.016V19.5858C71.2275 19.6167 71.6023 19.6307 72.147 19.6307C73.4206 19.6307 74.4036 19.2854 75.0959 18.5949C75.7883 17.9043 76.1377 16.8979 76.1377 15.5756Z" fill="black"/>
<path d="M87.1967 17.1224C87.1967 18.2449 86.8679 19.1646 86.2105 19.8862C85.5213 20.6278 84.6082 20.9978 83.468 20.9978C82.3691 20.9978 81.4941 20.6433 80.8414 19.9311C80.1903 19.2204 79.8647 18.3239 79.8647 17.2432C79.8647 16.1129 80.1998 15.1854 80.8731 14.4655C81.5465 13.7455 82.4516 13.3847 83.5918 13.3847C84.6908 13.3847 85.5737 13.7393 86.2423 14.45C86.8775 15.1405 87.1967 16.0324 87.1967 17.1224ZM85.4705 17.175C85.4705 16.5015 85.3212 15.924 85.0242 15.4425C84.6749 14.8603 84.1778 14.5692 83.5315 14.5692C82.8629 14.5692 82.3548 14.8603 82.0054 15.4425C81.7069 15.924 81.5592 16.5108 81.5592 17.2045C81.5592 17.878 81.7084 18.4555 82.0054 18.937C82.3659 19.5192 82.8677 19.8103 83.5156 19.8103C84.1508 19.8103 84.6495 19.5146 85.0084 18.9215C85.3164 18.4307 85.4705 17.8486 85.4705 17.175Z" fill="black"/>
<path d="M99.6724 13.5334L97.33 20.8322H95.8055L94.8353 17.6627C94.5891 16.8716 94.389 16.085 94.2334 15.3047H94.2032C94.0587 16.1067 93.8586 16.8917 93.6014 17.6627L92.5707 20.8322H91.0288L88.8262 13.5334H90.5365L91.3829 17.0032C91.5877 17.8238 91.7561 18.6057 91.8911 19.3458H91.9212C92.0451 18.7357 92.2499 17.9585 92.539 17.0186L93.6014 13.5349H94.9575L95.9755 16.9443C96.2216 17.7758 96.4217 18.5763 96.5757 19.3473H96.6218C96.7345 18.5964 96.9044 17.7959 97.1299 16.9443L98.0383 13.5349H99.6724V13.5334Z" fill="black"/>
<path d="M108.3 20.8322H106.636V16.6517C106.636 15.3635 106.134 14.7194 105.127 14.7194C104.633 14.7194 104.235 14.8959 103.925 15.2505C103.618 15.605 103.463 16.0231 103.463 16.5015V20.8306H101.799V15.619C101.799 14.978 101.778 14.2828 101.738 13.5303H103.201L103.279 14.6714H103.325C103.518 14.3168 103.807 14.0242 104.187 13.7904C104.638 13.5179 105.143 13.3801 105.696 13.3801C106.394 13.3801 106.976 13.6 107.438 14.0412C108.013 14.5816 108.3 15.3883 108.3 16.4597V20.8322Z" fill="black"/>
<path d="M112.889 20.8322H111.227V10.1843H112.889V20.8322Z" fill="black"/>
<path d="M122.687 17.1224C122.687 18.2449 122.359 19.1646 121.701 19.8862C121.012 20.6278 120.097 20.9978 118.959 20.9978C117.858 20.9978 116.983 20.6433 116.332 19.9311C115.681 19.2204 115.355 18.3239 115.355 17.2432C115.355 16.1129 115.691 15.1854 116.364 14.4655C117.037 13.7455 117.942 13.3847 119.081 13.3847C120.181 13.3847 121.063 13.7393 121.733 14.45C122.368 15.1405 122.687 16.0324 122.687 17.1224ZM120.96 17.175C120.96 16.5015 120.81 15.924 120.513 15.4425C120.166 14.8603 119.667 14.5692 119.022 14.5692C118.352 14.5692 117.844 14.8603 117.496 15.4425C117.198 15.924 117.05 16.5108 117.05 17.2045C117.05 17.878 117.199 18.4555 117.496 18.937C117.857 19.5192 118.358 19.8103 119.006 19.8103C119.642 19.8103 120.139 19.5146 120.497 18.9215C120.807 18.4307 120.96 17.8486 120.96 17.175Z" fill="black"/>
<path d="M130.742 20.8322H129.248L129.124 19.9914H129.078C128.566 20.6619 127.837 20.9978 126.891 20.9978C126.184 20.9978 125.613 20.7764 125.182 20.3367C124.792 19.9372 124.596 19.4402 124.596 18.8503C124.596 17.9585 124.977 17.2788 125.744 16.8081C126.51 16.3374 127.586 16.1067 128.973 16.1175V15.9813C128.973 15.0198 128.455 14.5398 127.418 14.5398C126.68 14.5398 126.029 14.7209 125.466 15.0802L125.128 14.0149C125.824 13.5953 126.683 13.3847 127.696 13.3847C129.652 13.3847 130.634 14.3912 130.634 16.404V19.0919C130.634 19.8211 130.67 20.4017 130.742 20.8322ZM129.014 18.3239V17.1983C127.178 17.1673 126.26 17.6581 126.26 18.6692C126.26 19.0501 126.365 19.3349 126.58 19.5254C126.794 19.7158 127.067 19.8103 127.393 19.8103C127.758 19.8103 128.099 19.6973 128.411 19.4728C128.723 19.2467 128.916 18.9603 128.987 18.6088C129.005 18.5298 129.014 18.4338 129.014 18.3239Z" fill="black"/>
<path d="M140.198 20.8322H138.721L138.644 19.6601H138.598C138.126 20.5519 137.322 20.9978 136.193 20.9978C135.291 20.9978 134.54 20.6526 133.945 19.962C133.349 19.2715 133.052 18.375 133.052 17.2741C133.052 16.0928 133.375 15.1359 134.023 14.4051C134.65 13.7238 135.418 13.3832 136.333 13.3832C137.338 13.3832 138.042 13.713 138.442 14.3741H138.474V10.1843H140.14V18.8658C140.14 19.5765 140.159 20.2314 140.198 20.8322ZM138.474 17.7541V16.5371C138.474 16.3265 138.458 16.1562 138.428 16.0262C138.334 15.636 138.132 15.3078 137.826 15.043C137.516 14.7782 137.143 14.6451 136.713 14.6451C136.092 14.6451 135.606 14.8851 135.248 15.3666C134.894 15.8481 134.715 16.4628 134.715 17.2137C134.715 17.9353 134.885 18.5205 135.226 18.9711C135.587 19.4511 136.073 19.6911 136.681 19.6911C137.227 19.6911 137.664 19.4913 137.996 19.0903C138.317 18.7203 138.474 18.2743 138.474 17.7541Z" fill="black"/>
<path d="M154.432 17.1224C154.432 18.2449 154.103 19.1646 153.446 19.8862C152.757 20.6278 151.845 20.9978 150.703 20.9978C149.606 20.9978 148.731 20.6433 148.077 19.9311C147.426 19.2204 147.1 18.3239 147.1 17.2432C147.1 16.1129 147.435 15.1854 148.108 14.4655C148.782 13.7455 149.687 13.3847 150.829 13.3847C151.926 13.3847 152.811 13.7393 153.478 14.45C154.113 15.1405 154.432 16.0324 154.432 17.1224ZM152.707 17.175C152.707 16.5015 152.558 15.924 152.261 15.4425C151.91 14.8603 151.415 14.5692 150.767 14.5692C150.1 14.5692 149.592 14.8603 149.241 15.4425C148.942 15.924 148.795 16.5108 148.795 17.2045C148.795 17.878 148.944 18.4555 149.241 18.937C149.601 19.5192 150.103 19.8103 150.751 19.8103C151.386 19.8103 151.886 19.5146 152.245 18.9215C152.552 18.4307 152.707 17.8486 152.707 17.175Z" fill="black"/>
<path d="M163.38 20.8322H161.718V16.6517C161.718 15.3635 161.216 14.7194 160.208 14.7194C159.714 14.7194 159.315 14.8959 159.007 15.2505C158.699 15.605 158.545 16.0231 158.545 16.5015V20.8306H156.879V15.619C156.879 14.978 156.86 14.2828 156.82 13.5303H158.281L158.359 14.6714H158.405C158.6 14.3168 158.89 14.0242 159.267 13.7904C159.72 13.5179 160.223 13.3801 160.778 13.3801C161.475 13.3801 162.056 13.6 162.518 14.0412C163.095 14.5816 163.38 15.3883 163.38 16.4597V20.8322Z" fill="black"/>
<path d="M174.581 14.7488H172.748V18.2945C172.748 19.1956 173.074 19.6462 173.718 19.6462C174.017 19.6462 174.265 19.6214 174.46 19.5703L174.503 20.8012C174.174 20.922 173.742 20.9824 173.21 20.9824C172.553 20.9824 172.041 20.7873 171.671 20.3971C171.3 20.0069 171.116 19.3504 171.116 18.4292V14.7488H170.021V13.5334H171.116V12.1956L172.747 11.7157V13.5318H174.579V14.7488H174.581Z" fill="black"/>
<path d="M183.391 20.8322H181.725V16.6827C181.725 15.3743 181.223 14.7194 180.218 14.7194C179.446 14.7194 178.919 15.0987 178.63 15.8574C178.581 16.0169 178.552 16.212 178.552 16.4411V20.8306H176.89V10.1843H178.552V14.5831H178.584C179.108 13.7827 179.859 13.3832 180.833 13.3832C181.522 13.3832 182.092 13.603 182.545 14.0443C183.108 14.594 183.391 15.4115 183.391 16.4922V20.8322Z" fill="black"/>
<path d="M192.48 16.8375C192.48 17.1286 192.457 17.3732 192.418 17.5729H187.427C187.449 18.2945 187.687 18.8441 188.149 19.225C188.572 19.5656 189.116 19.736 189.783 19.736C190.522 19.736 191.195 19.6214 191.802 19.3907L192.062 20.5179C191.352 20.8182 190.517 20.9684 189.55 20.9684C188.39 20.9684 187.477 20.6355 186.817 19.9698C186.153 19.304 185.824 18.4106 185.824 17.2896C185.824 16.1887 186.131 15.2721 186.748 14.5413C187.393 13.761 188.265 13.3708 189.366 13.3708C190.442 13.3708 191.26 13.761 191.813 14.5413C192.259 15.1607 192.48 15.9271 192.48 16.8375ZM190.892 16.4179C190.904 15.9364 190.795 15.5214 190.569 15.1715C190.28 14.7209 189.84 14.4949 189.245 14.4949C188.702 14.4949 188.259 14.7147 187.92 15.156C187.644 15.5075 187.481 15.9271 187.427 16.4179H190.892Z" fill="black"/>
</svg>
