<svg id="Layer_1" data-name="Layer 1" xmlns="http://www.w3.org/2000/svg" viewBox="0 0 280 300"><defs><style>.cls-1{fill:#f8991d;}.cls-1,.cls-3{fill-rule:evenodd;}.cls-2,.cls-3{fill:#010101;}.cls-2{stroke:#010101;}</style></defs><title>amazon web services logo</title><polygon class="cls-1" points="81.8 177.97 72.58 174.66 72.58 161.16 81.8 164.3 81.8 177.97"/><polygon class="cls-1" points="83.49 177.97 92.7 174.66 92.7 161.16 83.49 164.3 83.49 177.97"/><polygon class="cls-1" points="73.53 160.15 82.86 157.52 91.51 160.31 82.86 163.25 73.53 160.15"/><polygon class="cls-1" points="70.83 159.1 61.61 155.79 61.61 142.28 70.83 145.42 70.83 159.1"/><polygon class="cls-1" points="72.52 159.1 81.73 155.79 81.73 142.28 72.52 145.42 72.52 159.1"/><polygon class="cls-1" points="62.56 141.27 71.88 138.65 80.53 141.44 71.88 144.37 62.56 141.27"/><polygon class="cls-1" points="92.33 159.1 83.11 155.79 83.11 142.28 92.33 145.42 92.33 159.1"/><polygon class="cls-1" points="94.02 159.1 103.24 155.79 103.24 142.28 94.02 145.42 94.02 159.1"/><polygon class="cls-1" points="84.06 141.27 93.39 138.65 102.04 141.44 93.39 144.37 84.06 141.27"/><polygon class="cls-1" points="103.31 140.23 94.09 136.92 94.09 123.41 103.31 126.55 103.31 140.23"/><polygon class="cls-1" points="105 140.23 114.21 136.92 114.21 123.41 105 126.55 105 140.23"/><polygon class="cls-1" points="95.03 122.4 104.36 119.77 113.01 122.56 104.36 125.5 95.03 122.4"/><polygon class="cls-1" points="124.81 140.23 115.59 136.92 115.59 123.41 124.81 126.55 124.81 140.23"/><polygon class="cls-1" points="126.5 140.23 135.72 136.92 135.72 123.41 126.5 126.55 126.5 140.23"/><polygon class="cls-1" points="116.54 122.4 125.87 119.77 134.52 122.56 125.87 125.5 116.54 122.4"/><path class="cls-2" d="M120.12,169.17,117,179.93h-1.35l-2.41-8-2.21,8h-1.37l-3.22-10.76h1.66l2.35,8,2.23-8h1.23l2.42,8,2.41-8Z"/><path class="cls-2" d="M128.69,176.72l1.56.32a4.41,4.41,0,0,1-1.66,2.28,4.79,4.79,0,0,1-2.9.91,4.52,4.52,0,0,1-3.57-1.56,6.76,6.76,0,0,1,.06-8.21,4.54,4.54,0,0,1,3.55-1.59,4.28,4.28,0,0,1,3.38,1.46,6.52,6.52,0,0,1,1.32,4.36h-7.81c0,1.63.34,2.73,1,3.29a3.32,3.32,0,0,0,2.16.86A3,3,0,0,0,128.69,176.72Zm-.09-3.27a4.91,4.91,0,0,0-.3-1.61,2.79,2.79,0,0,0-.94-1.2,2.54,2.54,0,0,0-1.58-.49,2.81,2.81,0,0,0-2.11.89,3.7,3.7,0,0,0-1,2.41Z"/><path class="cls-2" d="M133.43,179.93h-.8V165.4h1.67V171a3.52,3.52,0,0,1,3.17-2.09,3.91,3.91,0,0,1,3.09,1.46,6.34,6.34,0,0,1,1.25,4.25,6.51,6.51,0,0,1-1.22,4,3.85,3.85,0,0,1-3.2,1.63,3.68,3.68,0,0,1-3.36-2.08Zm.87-4.22a3.26,3.26,0,0,0,1,2.4,2.92,2.92,0,0,0,1.9.75,2.41,2.41,0,0,0,2.06-1.11,5.17,5.17,0,0,0,.78-3,6,6,0,0,0-.76-3.27,2.36,2.36,0,0,0-2.09-1.19,2.61,2.61,0,0,0-1.9.85,3.62,3.62,0,0,0-1,2.18Z"/><path class="cls-2" d="M146.08,177.14l1.6-.33c.36,1.35,1.48,2,3.37,2a3.19,3.19,0,0,0,1.76-.47,1.47,1.47,0,0,0,.73-1.32c0-.84-.62-1.37-1.84-1.6l-2.27-.43a4.2,4.2,0,0,1-2.12-1,2.62,2.62,0,0,1-.79-2,2.85,2.85,0,0,1,1.08-2.27,4.37,4.37,0,0,1,2.89-.91c2.34,0,3.78.92,4.32,2.74l-1.53.33a2.62,2.62,0,0,0-2.71-1.68,3.08,3.08,0,0,0-1.68.42,1.33,1.33,0,0,0-.65,1.17c0,.79.56,1.29,1.67,1.5l2.09.38c2.2.4,3.29,1.46,3.29,3.19a2.84,2.84,0,0,1-1.22,2.39,5.32,5.32,0,0,1-3.26.92C148.26,180.23,146.69,179.2,146.08,177.14Z"/><path class="cls-2" d="M164.2,176.72l1.56.32a4.31,4.31,0,0,1-1.66,2.28,4.79,4.79,0,0,1-2.9.91,4.5,4.5,0,0,1-3.56-1.56,5.9,5.9,0,0,1-1.36-4.06,6,6,0,0,1,1.41-4.15,4.57,4.57,0,0,1,3.56-1.59,4.28,4.28,0,0,1,3.38,1.46,6.52,6.52,0,0,1,1.31,4.36h-7.8c0,1.63.34,2.73,1,3.29a3.32,3.32,0,0,0,2.15.86A3,3,0,0,0,164.2,176.72Zm-.09-3.27a4.67,4.67,0,0,0-.29-1.61,2.79,2.79,0,0,0-.94-1.2,2.56,2.56,0,0,0-1.58-.49,2.81,2.81,0,0,0-2.11.89,3.7,3.7,0,0,0-1,2.41Z"/><path class="cls-2" d="M169.42,179.93h-1.67V169.17h1.46v2.51a5.27,5.27,0,0,1,1.56-2.28,2.86,2.86,0,0,1,1.6-.53c.17,0,.39,0,.66,0v1.6h-.34a2.92,2.92,0,0,0-2.29,1,4.12,4.12,0,0,0-1,2.69Z"/><path class="cls-2" d="M183.44,169.17l-3.71,10.76H178l-3.84-10.76H176l3,8.74,3-8.74Z"/><path class="cls-2" d="M186.57,165.4v1.86h-1.79V165.4Zm0,3.77v10.76h-1.67V169.17Z"/><path class="cls-2" d="M195.29,176.16l1.5.27a4.84,4.84,0,0,1-1.41,2.79,4.26,4.26,0,0,1-6.12-.64,6.71,6.71,0,0,1-1.17-4,6.55,6.55,0,0,1,1.23-4.08,4,4,0,0,1,3.35-1.63,3.82,3.82,0,0,1,2.81,1,4.69,4.69,0,0,1,1.31,2.72l-1.5.29c-.29-1.78-1.14-2.67-2.58-2.67a2.35,2.35,0,0,0-2.12,1.18,5.58,5.58,0,0,0-.75,3.05,5.9,5.9,0,0,0,.74,3.2,2.37,2.37,0,0,0,2.08,1.15C194,178.84,194.92,177.94,195.29,176.16Z"/><path class="cls-2" d="M206.24,176.72l1.56.32a4.31,4.31,0,0,1-1.66,2.28,4.79,4.79,0,0,1-2.9.91,4.5,4.5,0,0,1-3.56-1.56,5.9,5.9,0,0,1-1.36-4.06,6,6,0,0,1,1.41-4.15,4.57,4.57,0,0,1,3.56-1.59,4.28,4.28,0,0,1,3.38,1.46,6.52,6.52,0,0,1,1.31,4.36h-7.8c0,1.63.34,2.73,1,3.29a3.32,3.32,0,0,0,2.15.86A3,3,0,0,0,206.24,176.72Zm-.09-3.27a4.44,4.44,0,0,0-.3-1.61,2.69,2.69,0,0,0-.93-1.2,2.56,2.56,0,0,0-1.58-.49,2.8,2.8,0,0,0-2.11.89,3.7,3.7,0,0,0-1,2.41Z"/><path class="cls-2" d="M208.93,177.14l1.6-.33c.35,1.35,1.48,2,3.36,2a3.2,3.2,0,0,0,1.77-.47,1.47,1.47,0,0,0,.73-1.32c0-.84-.62-1.37-1.85-1.6l-2.26-.43a4.16,4.16,0,0,1-2.12-1,2.58,2.58,0,0,1-.79-2,2.85,2.85,0,0,1,1.08-2.27,4.35,4.35,0,0,1,2.89-.91c2.33,0,3.77.92,4.32,2.74l-1.53.33a2.62,2.62,0,0,0-2.71-1.68,3.08,3.08,0,0,0-1.68.42,1.31,1.31,0,0,0-.65,1.17c0,.79.55,1.29,1.67,1.5l2.09.38q3.28.6,3.29,3.19a2.84,2.84,0,0,1-1.22,2.39,5.34,5.34,0,0,1-3.26.92Q209.84,180.23,208.93,177.14Z"/><path class="cls-3" d="M171.16,146.18V143.6a.64.64,0,0,1,.66-.65H183.4a.64.64,0,0,1,.66.66v2.21a3.55,3.55,0,0,1-.87,1.63l-6,8.56a12.84,12.84,0,0,1,6.61,1.42,1.19,1.19,0,0,1,.61,1v2.76c0,.38-.41.82-.85.59a13.33,13.33,0,0,0-12.23,0c-.41.21-.83-.22-.83-.6v-2.62a3.11,3.11,0,0,1,.43-1.77l6.95-10h-6A.64.64,0,0,1,171.16,146.18Z"/><path class="cls-3" d="M129.72,162.32H126.2a.66.66,0,0,1-.63-.59V143.64a.67.67,0,0,1,.68-.65h3.28a.66.66,0,0,1,.64.61V146h.07a4.64,4.64,0,0,1,4.63-3.35c2.21,0,3.59,1.07,4.58,3.35a5.2,5.2,0,0,1,8.94-1.37c1.12,1.52.89,3.73.89,5.67v11.41a.67.67,0,0,1-.68.65h-3.52a.66.66,0,0,1-.64-.65v-9.58a23.84,23.84,0,0,0-.09-3.39,1.85,1.85,0,0,0-2.08-1.56,2.33,2.33,0,0,0-2.1,1.48,11,11,0,0,0-.33,3.47v9.58a.66.66,0,0,1-.68.65h-3.52a.66.66,0,0,1-.63-.65v-9.58c0-2,.33-5-2.17-5s-2.44,2.89-2.44,5v9.58A.66.66,0,0,1,129.72,162.32Z"/><path class="cls-3" d="M192.57,142.61c5.19,0,8,4.49,8,10.2,0,5.52-3.1,9.89-8,9.89-5.09,0-7.86-4.49-7.86-10.08S187.51,142.61,192.57,142.61Zm0,4.16c-2.57,0-2.74,3.54-2.74,5.74s0,6.46,2.71,6.46,2.84-3.34,2.84-5.66a17.05,17.05,0,0,0-.52-4.79A2.2,2.2,0,0,0,192.6,146.77Z"/><path class="cls-3" d="M208.07,162.32h-3.51a.66.66,0,0,1-.63-.65V143.58a.67.67,0,0,1,.68-.59h3.27a.67.67,0,0,1,.62.51v2.76h.07c1-2.47,2.37-3.65,4.8-3.65a4.62,4.62,0,0,1,4.11,2.13c.92,1.45.92,3.88.92,5.63v11.38a.67.67,0,0,1-.67.57h-3.54a.66.66,0,0,1-.62-.57v-9.82c0-2,.23-4.87-2.21-4.87a2.29,2.29,0,0,0-2,1.45,7.93,7.93,0,0,0-.56,3.42v9.74A.68.68,0,0,1,208.07,162.32Z"/><path class="cls-3" d="M162.33,153.69a6.91,6.91,0,0,1-.66,3.73,2.86,2.86,0,0,1-2.44,1.6c-1.35,0-2.14-1-2.14-2.55,0-3,2.69-3.55,5.24-3.55Zm3.55,8.59a.74.74,0,0,1-.83.08,8.66,8.66,0,0,1-2-2.35,7,7,0,0,1-5.81,2.56c-3,0-5.27-1.83-5.27-5.49a6,6,0,0,1,3.76-5.76c1.91-.84,4.58-1,6.62-1.22v-.46a4.46,4.46,0,0,0-.43-2.55,2.35,2.35,0,0,0-2-.92,2.69,2.69,0,0,0-2.83,2.12.74.74,0,0,1-.61.65l-3.41-.37a.63.63,0,0,1-.53-.74c.79-4.14,4.53-5.39,7.88-5.39a8,8,0,0,1,5.3,1.75c1.72,1.6,1.55,3.74,1.55,6.06v5.49A4.85,4.85,0,0,0,168.6,159c.23.32.28.7,0,.93-.72.61-2,1.72-2.7,2.34Z"/><path class="cls-3" d="M116.55,153.69a6.91,6.91,0,0,1-.66,3.73,2.86,2.86,0,0,1-2.44,1.6c-1.35,0-2.14-1-2.14-2.55,0-3,2.69-3.55,5.24-3.55Zm3.55,8.59a.74.74,0,0,1-.83.08,8.66,8.66,0,0,1-2-2.35,7,7,0,0,1-5.81,2.56c-3,0-5.27-1.83-5.27-5.49a6,6,0,0,1,3.75-5.76c1.92-.84,4.59-1,6.63-1.22v-.46a4.54,4.54,0,0,0-.43-2.55,2.35,2.35,0,0,0-2-.92,2.68,2.68,0,0,0-2.83,2.12.74.74,0,0,1-.61.65l-3.41-.37a.63.63,0,0,1-.53-.74c.78-4.14,4.52-5.39,7.88-5.39a8,8,0,0,1,5.3,1.75c1.72,1.6,1.55,3.74,1.55,6.06v5.49a4.85,4.85,0,0,0,1.33,3.27c.23.32.28.7,0,.93-.72.61-2,1.72-2.7,2.34Z"/></svg>