<svg width="215" height="62" viewBox="0 0 215 62" fill="none" xmlns="http://www.w3.org/2000/svg">
<path d="M206.543 61.9665H8.31251C3.95343 61.9665 0.383301 58.4808 0.383301 54.2249V7.77515C0.383301 3.5192 3.95343 0.0335355 8.31251 0.0335355H206.543C210.902 0.0335355 214.472 3.5192 214.472 7.77515V54.2249C214.472 58.4808 210.902 61.9665 206.543 61.9665Z" fill="white"/>
<path d="M206.543 1.27413C210.214 1.27413 213.201 4.19078 213.201 7.77515V54.2249C213.201 57.8092 210.214 60.7259 206.543 60.7259H8.31251C4.64128 60.7259 1.65396 57.8092 1.65396 54.2249V7.77515C1.65396 4.19078 4.64128 1.27413 8.31251 1.27413H206.543ZM206.543 0.0335355H8.31251C3.95343 0.0335355 0.383301 3.5192 0.383301 7.77515V54.2249C0.383301 58.4808 3.95343 61.9665 8.31251 61.9665H206.543C210.902 61.9665 214.472 58.4808 214.472 54.2249V7.77515C214.472 3.5192 210.902 0.0335355 206.543 0.0335355Z" fill="#A6A6A6"/>
<path d="M75.58 15.8942C75.58 17.187 75.1836 18.2225 74.4026 18.9947C73.5046 19.9101 72.335 20.3708 70.9018 20.3708C69.532 20.3708 68.3625 19.9024 67.403 18.9792C66.4416 18.0425 65.9619 16.8928 65.9619 15.5168C65.9619 14.1407 66.4416 12.9911 67.403 12.0621C68.3625 11.1311 69.532 10.6628 70.9018 10.6628C71.5837 10.6628 72.2339 10.8002 72.8544 11.0557C73.4729 11.3131 73.9764 11.6614 74.3411 12.0911L73.5125 12.9078C72.8762 12.1743 72.0099 11.8124 70.9018 11.8124C69.9027 11.8124 69.0365 12.153 68.301 12.8401C67.5735 13.5291 67.2088 14.4213 67.2088 15.5168C67.2088 16.6122 67.5735 17.5122 68.301 18.2012C69.0365 18.8805 69.9027 19.2289 70.9018 19.2289C71.9623 19.2289 72.8544 18.8805 73.5581 18.1934C74.022 17.7386 74.2856 17.1115 74.355 16.3103H70.9018V15.1916H75.5087C75.5642 15.4335 75.58 15.6677 75.58 15.8942Z" fill="black" stroke="black" stroke-width="0.190563" stroke-miterlimit="10"/>
<path d="M82.8889 12.0156H78.5615V14.9574H82.4627V16.0761H78.5615V19.0179H82.8889V20.1578H77.3364V10.8756H82.8889V12.0156Z" fill="black" stroke="black" stroke-width="0.190563" stroke-miterlimit="10"/>
<path d="M88.0464 20.1578H86.8213V12.0156H84.167V10.8756H90.7026V12.0156H88.0464V20.1578Z" fill="black" stroke="black" stroke-width="0.190563" stroke-miterlimit="10"/>
<path d="M95.4326 20.1578V10.8756H96.6557V20.1578H95.4326Z" fill="black" stroke="black" stroke-width="0.190563" stroke-miterlimit="10"/>
<path d="M102.077 20.1578H100.862V12.0156H98.1978V10.8756H104.741V12.0156H102.077V20.1578Z" fill="black" stroke="black" stroke-width="0.190563" stroke-miterlimit="10"/>
<path d="M117.115 18.9637C116.177 19.9024 115.016 20.3708 113.63 20.3708C112.237 20.3708 111.075 19.9024 110.137 18.9637C109.202 18.027 108.736 16.8773 108.736 15.5168C108.736 14.1562 109.202 13.0065 110.137 12.0698C111.075 11.1311 112.237 10.6628 113.63 10.6628C115.008 10.6628 116.169 11.1311 117.107 12.0775C118.051 13.022 118.517 14.1639 118.517 15.5168C118.517 16.8773 118.051 18.027 117.115 18.9637ZM111.043 18.1857C111.749 18.8805 112.607 19.2289 113.63 19.2289C114.645 19.2289 115.511 18.8805 116.209 18.1857C116.913 17.4909 117.27 16.5987 117.27 15.5168C117.27 14.4349 116.913 13.5426 116.209 12.8478C115.511 12.153 114.645 11.8047 113.63 11.8047C112.607 11.8047 111.749 12.153 111.043 12.8478C110.34 13.5426 109.983 14.4349 109.983 15.5168C109.983 16.5987 110.34 17.4909 111.043 18.1857Z" fill="black" stroke="black" stroke-width="0.190563" stroke-miterlimit="10"/>
<path d="M120.235 20.1578V10.8756H121.722L126.345 18.0947H126.398L126.345 16.3103V10.8756H127.568V20.1578H126.291L121.451 12.5827H121.397L121.451 14.3749V20.1578H120.235Z" fill="black" stroke="black" stroke-width="0.190563" stroke-miterlimit="10"/>
<path d="M108.435 33.7135C104.71 33.7135 101.667 36.4811 101.667 40.2996C101.667 44.0872 104.71 46.8839 108.435 46.8839C112.167 46.8839 115.21 44.0872 115.21 40.2996C115.21 36.4811 112.167 33.7135 108.435 33.7135ZM108.435 44.2905C106.391 44.2905 104.633 42.6434 104.633 40.2996C104.633 37.9249 106.391 36.3069 108.435 36.3069C110.478 36.3069 112.245 37.9249 112.245 40.2996C112.245 42.6434 110.478 44.2905 108.435 44.2905ZM93.6685 33.7135C89.9358 33.7135 86.9009 36.4811 86.9009 40.2996C86.9009 44.0872 89.9358 46.8839 93.6685 46.8839C97.3992 46.8839 100.436 44.0872 100.436 40.2996C100.436 36.4811 97.3992 33.7135 93.6685 33.7135ZM93.6685 44.2905C91.6228 44.2905 89.8585 42.6434 89.8585 40.2996C89.8585 37.9249 91.6228 36.3069 93.6685 36.3069C95.7123 36.3069 97.4706 37.9249 97.4706 40.2996C97.4706 42.6434 95.7123 44.2905 93.6685 44.2905ZM76.0974 35.7321V38.5307H82.9423C82.7421 40.0945 82.2068 41.2441 81.3862 42.0454C80.3871 43.0131 78.831 44.0872 76.0974 44.0872C71.885 44.0872 68.5864 40.768 68.5864 36.6553C68.5864 32.5426 71.885 29.2233 76.0974 29.2233C78.3751 29.2233 80.0323 30.0923 81.2553 31.2187L83.2753 29.2466C81.5646 27.6518 79.2889 26.4267 76.0974 26.4267C70.321 26.4267 65.4663 31.0155 65.4663 36.6553C65.4663 42.2951 70.321 46.8839 76.0974 46.8839C79.2195 46.8839 81.5646 45.8852 83.4081 44.0118C85.2972 42.1673 85.886 39.5739 85.886 37.4798C85.886 36.8295 85.8305 36.2314 85.7314 35.7321H76.0974ZM147.948 37.9017C147.391 36.4288 145.672 33.7135 142.171 33.7135C138.702 33.7135 135.814 36.3824 135.814 40.2996C135.814 43.9885 138.673 46.8839 142.504 46.8839C145.603 46.8839 147.391 45.0395 148.126 43.9653L145.827 42.4692C145.06 43.5647 144.015 44.2905 142.504 44.2905C141.004 44.2905 139.927 43.6189 139.238 42.2951L148.259 38.6507L147.948 37.9017ZM138.75 40.0945C138.673 37.5552 140.77 36.2547 142.273 36.2547C143.45 36.2547 144.449 36.8295 144.782 37.652L138.75 40.0945ZM131.417 46.4833H134.383V27.1292H131.417V46.4833ZM126.561 35.1805H126.462C125.796 34.4102 124.525 33.7135 122.915 33.7135C119.538 33.7135 116.449 36.6088 116.449 40.3209C116.449 44.0118 119.538 46.8839 122.915 46.8839C124.525 46.8839 125.796 46.1813 126.462 45.3878H126.561V46.3323C126.561 48.8503 125.183 50.2031 122.961 50.2031C121.149 50.2031 120.025 48.9257 119.561 47.8516L116.982 48.9025C117.726 50.6483 119.694 52.7966 122.961 52.7966C126.438 52.7966 129.372 50.7992 129.372 45.9394V34.1141H126.561V35.1805ZM123.169 44.2905C121.125 44.2905 119.415 42.6202 119.415 40.3209C119.415 38.0004 121.125 36.3069 123.169 36.3069C125.183 36.3069 126.771 38.0004 126.771 40.3209C126.771 42.6202 125.183 44.2905 123.169 44.2905ZM161.832 27.1292H154.739V46.4833H157.697V39.15H161.832C165.117 39.15 168.338 36.8295 168.338 33.1387C168.338 29.4498 165.109 27.1292 161.832 27.1292ZM161.909 36.4579H157.697V29.8214H161.909C164.118 29.8214 165.378 31.6116 165.378 33.1387C165.378 34.6367 164.118 36.4579 161.909 36.4579ZM180.192 33.6767C178.055 33.6767 175.833 34.5979 174.919 36.6398L177.544 37.7139C178.109 36.6398 179.147 36.2914 180.246 36.2914C181.78 36.2914 183.336 37.1914 183.36 38.7804V38.9836C182.824 38.6817 181.679 38.2346 180.269 38.2346C177.443 38.2346 174.562 39.7539 174.562 42.5892C174.562 45.1827 176.878 46.8529 179.48 46.8529C181.471 46.8529 182.569 45.9762 183.259 44.9562H183.36V46.4523H186.216V39.0281C186.216 35.5966 183.592 33.6767 180.192 33.6767ZM179.835 44.2827C178.868 44.2827 177.52 43.8143 177.52 42.6434C177.52 41.1454 179.201 40.5706 180.656 40.5706C181.958 40.5706 182.569 40.8512 183.36 41.2209C183.128 43.0131 181.548 44.2827 179.835 44.2827ZM196.623 34.1005L193.224 42.4905H193.123L189.608 34.1005H186.418L191.699 45.8252L188.686 52.3495H191.777L199.914 34.1005H196.623ZM169.963 46.4833H172.929V27.1292H169.963V46.4833Z" fill="black"/>
<path d="M16.9317 11.7059C16.4659 12.182 16.1963 12.9233 16.1963 13.8833V48.1244C16.1963 49.0844 16.4659 49.8257 16.9317 50.3018L17.0467 50.4063L36.6992 31.2264V30.7735L17.0467 11.5937L16.9317 11.7059Z" fill="url(#paint0_linear_507_1065)"/>
<path d="M43.2428 37.6229L36.6992 31.2264V30.7735L43.2507 24.377L43.3974 24.4602L51.1561 28.7704C53.3704 29.9936 53.3704 32.0064 51.1561 33.2373L43.3974 37.5397L43.2428 37.6229Z" fill="url(#paint1_linear_507_1065)"/>
<path d="M43.3974 37.5397L36.6992 31L16.9316 50.3018C17.6671 51.0566 18.8664 51.1476 20.2302 50.3928L43.3974 37.5397Z" fill="url(#paint2_linear_507_1065)"/>
<path d="M43.3974 24.4603L20.2302 11.6073C18.8664 10.8602 17.6671 10.9511 16.9316 11.706L36.6992 31L43.3974 24.4603Z" fill="url(#paint3_linear_507_1065)"/>
<defs>
<linearGradient id="paint0_linear_507_1065" x1="34.9543" y1="48.481" x2="8.97718" y2="21.8744" gradientUnits="userSpaceOnUse">
<stop stop-color="#00A0FF"/>
<stop offset="0.0066" stop-color="#00A1FF"/>
<stop offset="0.2601" stop-color="#00BEFF"/>
<stop offset="0.5122" stop-color="#00D2FF"/>
<stop offset="0.7604" stop-color="#00DFFF"/>
<stop offset="1" stop-color="#00E3FF"/>
</linearGradient>
<linearGradient id="paint1_linear_507_1065" x1="54.0394" y1="30.9978" x2="15.667" y2="30.9978" gradientUnits="userSpaceOnUse">
<stop stop-color="#FFE000"/>
<stop offset="0.4087" stop-color="#FFBD00"/>
<stop offset="0.7754" stop-color="#FFA500"/>
<stop offset="1" stop-color="#FF9C00"/>
</linearGradient>
<linearGradient id="paint2_linear_507_1065" x1="39.7551" y1="27.4449" x2="4.52796" y2="-8.63582" gradientUnits="userSpaceOnUse">
<stop stop-color="#FF3A44"/>
<stop offset="1" stop-color="#C31162"/>
</linearGradient>
<linearGradient id="paint3_linear_507_1065" x1="11.9557" y1="61.6937" x2="27.6862" y2="45.5822" gradientUnits="userSpaceOnUse">
<stop stop-color="#32A071"/>
<stop offset="0.0685" stop-color="#2DA771"/>
<stop offset="0.4762" stop-color="#15CF74"/>
<stop offset="0.8009" stop-color="#06E775"/>
<stop offset="1" stop-color="#00F076"/>
</linearGradient>
</defs>
</svg>
