<svg width="226" height="233" viewBox="0 0 226 233" fill="none" xmlns="http://www.w3.org/2000/svg">
<path fill-rule="evenodd" clip-rule="evenodd" d="M0.878662 104.398C0.878662 100.067 0.878662 97.9011 1.40666 95.8864C1.87456 94.1011 2.64481 92.4091 3.68399 90.8839C4.85664 89.1627 6.48993 87.7406 9.75649 84.8963L9.75655 84.8963L96.0192 9.78547C102.038 4.54461 105.048 1.92418 108.432 0.926988C111.414 0.048263 114.586 0.048263 117.568 0.926988C120.952 1.92418 123.962 4.54461 129.981 9.78545L216.243 84.8962L216.243 84.8963C219.51 87.7406 221.143 89.1627 222.316 90.8839C223.355 92.4091 224.125 94.1011 224.593 95.8864C224.803 96.6887 224.93 97.5148 225.006 98.4922C206.842 108.859 187.554 116.997 166.949 122.51C154.461 125.853 141.797 128.208 128.836 128.619C128.659 128.625 128.482 128.631 128.305 128.638C126.957 128.686 125.591 128.735 124.286 128.499C123.012 128.267 121.653 127.771 120.633 126.995C119.413 126.066 118.247 125.061 117.082 124.057L117.082 124.057C115.444 122.644 113.809 121.234 112.026 120.041C109.855 118.588 107.449 117.475 105.053 116.366C104.403 116.065 103.753 115.765 103.11 115.458C101.107 114.505 99.0676 113.63 97.0272 112.754C96.4277 112.497 95.8282 112.24 95.2295 111.981C93.4958 111.23 92.4268 111.889 92.2476 113.811C92.0032 116.443 93.2122 118.286 95.4218 119.568C96.1815 120.008 96.9422 120.446 97.7029 120.884C99.7156 122.042 101.728 123.201 103.719 124.399C103.993 124.562 104.263 124.858 104.338 125.175C104.498 125.821 103.765 126.016 103.273 125.98C97.3825 125.56 91.4938 125.123 85.6055 124.686L85.5941 124.686C82.1782 124.432 78.7625 124.179 75.3467 123.929C72.3224 123.707 70.7321 125.302 71.3806 127.879C71.7652 129.409 72.8993 130.117 74.3365 130.27C77.8755 130.648 81.419 130.979 84.9634 131.309L84.9802 131.31C85.6439 131.372 86.3076 131.434 86.9714 131.496C87.8638 131.581 88.7573 131.651 89.6507 131.721H89.6509C90.2712 131.769 90.8914 131.818 91.5111 131.871C92.5051 131.956 93.2742 132.798 93.2676 133.806C93.2611 134.68 92.5931 135.202 91.7881 135.326C91.2406 135.41 90.6507 135.43 90.0967 135.424C87.9643 135.395 85.8318 135.366 83.6993 135.337L83.6867 135.336C79.416 135.278 75.1448 135.219 70.8722 135.169C68.4052 135.14 66.7203 136.311 66.4824 138.163C66.2185 140.228 67.5351 141.605 69.9597 141.65C74.528 141.732 79.0978 141.786 83.667 141.839C85.8322 141.864 87.9972 141.89 90.1619 141.918C90.3379 141.919 90.5986 141.918 90.8593 141.916C91.12 141.915 91.3807 141.913 91.5567 141.915C92.6093 141.918 93.4404 142.244 93.5642 143.448C93.7043 144.792 92.8147 145.287 91.6838 145.418C88.8559 145.744 86.0256 146.044 83.195 146.344L83.1878 146.345L83.1796 146.346C82.6718 146.399 82.1639 146.453 81.6561 146.507C81.1943 146.556 80.7313 146.599 80.2682 146.641L80.2661 146.642L80.265 146.642C79.4317 146.719 78.5982 146.795 77.7714 146.908C75.7802 147.182 74.7732 148.389 74.9589 150.193C75.1382 151.909 76.3179 152.959 78.2765 152.747C81.8454 152.358 85.4039 151.894 88.9634 151.431C90.2957 151.257 91.6281 151.084 92.9613 150.914C93.2175 150.882 93.4832 150.839 93.7513 150.796L93.7514 150.796C94.3256 150.704 94.9105 150.609 95.4349 150.614C95.9335 150.62 96.406 150.77 96.7482 151.142C97.5206 151.981 96.582 153.174 95.7575 153.435C95.4516 153.531 95.1211 153.609 94.7996 153.685C94.6826 153.713 94.5669 153.74 94.4539 153.768C93.9276 153.898 93.4048 153.994 92.8799 154.091L92.8792 154.091L92.8785 154.092C92.5328 154.155 92.1862 154.219 91.837 154.293C90.9646 154.477 90.0906 154.654 89.2162 154.832C88.3658 155.005 87.515 155.178 86.665 155.357C85.4658 155.608 84.3414 155.94 83.9406 157.327C83.3572 159.346 84.827 161.006 87.0105 160.589C93.9781 159.258 100.939 157.875 107.894 156.472C109.997 156.047 112.093 155.562 114.188 155.077L114.189 155.077C118.386 154.106 122.583 153.134 126.835 152.649C160.36 148.833 193.15 141.756 225.121 131.143V206.6C225.121 215.651 225.121 220.177 223.36 223.634C221.81 226.675 219.338 229.147 216.297 230.697C212.84 232.458 208.314 232.458 199.263 232.458H26.7372C17.6859 232.458 13.1602 232.458 9.70306 230.697C6.66205 229.147 4.18964 226.675 2.64017 223.634C0.878662 220.177 0.878662 215.651 0.878662 206.6V184.394C33.0352 195.115 66.0224 202.256 99.7527 206.102C104.005 206.587 108.201 207.558 112.399 208.53C114.495 209.015 116.591 209.5 118.694 209.925C125.648 211.327 132.609 212.71 139.577 214.041C141.76 214.459 143.23 212.799 142.647 210.779C142.246 209.393 141.122 209.06 139.922 208.809C139.072 208.631 138.222 208.458 137.371 208.285C136.497 208.107 135.623 207.929 134.75 207.746C134.401 207.672 134.054 207.608 133.708 207.544C133.183 207.447 132.66 207.351 132.134 207.221C132.021 207.193 131.905 207.166 131.788 207.138C131.466 207.062 131.136 206.984 130.83 206.888C130.005 206.627 129.067 205.433 129.839 204.595C130.181 204.223 130.654 204.073 131.153 204.067C131.677 204.062 132.262 204.156 132.836 204.249C133.104 204.292 133.37 204.334 133.626 204.367C134.959 204.536 136.292 204.71 137.624 204.883C141.184 205.347 144.742 205.811 148.311 206.2C150.27 206.412 151.449 205.362 151.628 203.646C151.814 201.842 150.807 200.635 148.816 200.361C147.989 200.248 147.155 200.171 146.322 200.094C145.858 200.052 145.394 200.009 144.931 199.96C144.422 199.906 143.912 199.852 143.403 199.798C140.569 199.497 137.735 199.197 134.904 198.87C133.773 198.74 132.883 198.244 133.023 196.9C133.147 195.697 133.978 195.371 135.031 195.367C135.207 195.366 135.467 195.367 135.728 195.369C135.989 195.371 136.25 195.372 136.426 195.371C138.591 195.342 140.757 195.317 142.923 195.292C147.491 195.238 152.06 195.185 156.628 195.103C159.052 195.057 160.369 193.681 160.105 191.616C159.867 189.763 158.182 188.592 155.715 188.622C151.438 188.672 147.163 188.731 142.888 188.789C140.756 188.819 138.623 188.848 136.491 188.876C135.937 188.883 135.347 188.863 134.799 188.778C133.994 188.654 133.326 188.133 133.32 187.258C133.313 186.25 134.082 185.409 135.076 185.324C135.696 185.271 136.316 185.222 136.936 185.174C137.829 185.104 138.723 185.034 139.616 184.949C140.285 184.886 140.953 184.824 141.621 184.762C145.167 184.431 148.711 184.101 152.251 183.723C153.688 183.569 154.822 182.861 155.207 181.332C155.855 178.755 154.265 177.16 151.241 177.381C147.826 177.632 144.411 177.885 140.996 178.138C135.103 178.575 129.21 179.012 123.315 179.433C122.823 179.469 122.089 179.273 122.249 178.628C122.324 178.311 122.595 178.014 122.868 177.851C124.86 176.653 126.871 175.495 128.884 174.337C129.645 173.899 130.406 173.461 131.166 173.02C133.375 171.739 134.584 169.896 134.34 167.263C134.161 165.342 133.092 164.683 131.358 165.433C130.759 165.693 130.16 165.95 129.561 166.207C127.52 167.082 125.48 167.957 123.478 168.91C122.834 169.217 122.185 169.518 121.535 169.819C119.138 170.928 116.733 172.041 114.561 173.493C112.779 174.687 111.143 176.097 109.505 177.509C108.341 178.514 107.175 179.519 105.954 180.448C104.934 181.224 103.575 181.72 102.301 181.951C100.996 182.188 99.6305 182.139 98.2822 182.09C98.105 182.084 97.9281 182.078 97.7517 182.072C84.7909 181.661 72.1267 179.306 59.6384 175.963C38.7679 170.378 19.2478 162.101 0.878662 151.542V104.398ZM87.2424 49.9495C87.2424 47.6866 87.2424 46.5552 87.6827 45.6909C88.0701 44.9307 88.6882 44.3126 89.4485 43.9252C90.3128 43.4848 91.4442 43.4848 93.707 43.4848H105.02C107.283 43.4848 108.414 43.4848 109.279 43.9252C110.039 44.3126 110.657 44.9307 111.044 45.6909C111.485 46.5552 111.485 47.6867 111.485 49.9495V61.2626C111.485 63.5255 111.485 64.6569 111.044 65.5212C110.657 66.2814 110.039 66.8995 109.279 67.2869C108.414 67.7273 107.283 67.7273 105.02 67.7273H93.707C91.4442 67.7273 90.3128 67.7273 89.4485 67.2869C88.6882 66.8995 88.0701 66.2814 87.6827 65.5212C87.2424 64.6569 87.2424 63.5255 87.2424 61.2626V49.9495ZM87.6827 72.9636C87.2423 73.8279 87.2423 74.9594 87.2423 77.2222V88.5353C87.2423 90.7981 87.2423 91.9296 87.6827 92.7939C88.0701 93.5541 88.6882 94.1722 89.4484 94.5596C90.3127 95 91.4441 95 93.707 95H105.02C107.283 95 108.414 95 109.279 94.5596C110.039 94.1722 110.657 93.5541 111.044 92.7939C111.485 91.9296 111.485 90.7981 111.485 88.5353V77.2222C111.485 74.9594 111.485 73.8279 111.044 72.9636C110.657 72.2034 110.039 71.5853 109.279 71.1979C108.414 70.7575 107.283 70.7575 105.02 70.7575H93.707C91.4441 70.7575 90.3127 70.7575 89.4484 71.1979C88.6882 71.5853 88.0701 72.2034 87.6827 72.9636ZM114.515 49.9495C114.515 47.6866 114.515 46.5552 114.955 45.6909C115.343 44.9307 115.961 44.3126 116.721 43.9252C117.585 43.4848 118.717 43.4848 120.98 43.4848H132.293C134.556 43.4848 135.687 43.4848 136.551 43.9252C137.312 44.3126 137.93 44.9307 138.317 45.6909C138.758 46.5552 138.758 47.6866 138.758 49.9495V61.2626C138.758 63.5254 138.758 64.6569 138.317 65.5211C137.93 66.2814 137.312 66.8995 136.551 67.2869C135.687 67.7272 134.556 67.7272 132.293 67.7272H120.98C118.717 67.7272 117.585 67.7272 116.721 67.2869C115.961 66.8995 115.343 66.2814 114.955 65.5211C114.515 64.6569 114.515 63.5254 114.515 61.2626V49.9495ZM114.955 72.9636C114.515 73.8279 114.515 74.9594 114.515 77.2222V88.5353C114.515 90.7981 114.515 91.9296 114.955 92.7939C115.343 93.5541 115.961 94.1722 116.721 94.5596C117.585 95 118.717 95 120.98 95H132.293C134.556 95 135.687 95 136.551 94.5596C137.312 94.1722 137.93 93.5541 138.317 92.7939C138.758 91.9296 138.758 90.7981 138.758 88.5353V77.2222C138.758 74.9594 138.758 73.8279 138.317 72.9636C137.93 72.2034 137.312 71.5853 136.551 71.1979C135.687 70.7575 134.556 70.7575 132.293 70.7575H120.98C118.717 70.7575 117.585 70.7575 116.721 71.1979C115.961 71.5853 115.343 72.2034 114.955 72.9636Z" fill="white"/>
</svg>
